<svg width="42" height="42" viewBox="0 0 42 42" fill="none" xmlns="http://www.w3.org/2000/svg">
<path d="M21 3C17.4399 3 13.9598 4.05568 10.9997 6.03355C8.03966 8.01141 5.73255 10.8226 4.37018 14.1117C3.0078 17.4008 2.65134 21.02 3.34587 24.5116C4.04041 28.0033 5.75474 31.2106 8.27209 33.7279C10.7894 36.2453 13.9967 37.9596 17.4884 38.6541C20.98 39.3487 24.5992 38.9922 27.8883 37.6298C31.1774 36.2674 33.9886 33.9603 35.9665 31.0003C37.9443 28.0402 39 24.5601 39 21C39 16.2261 37.1036 11.6477 33.7279 8.27208C30.3523 4.89642 25.7739 3 21 3V3ZM27.975 26.8275C27.8933 26.9512 27.7879 27.0575 27.665 27.1403C27.542 27.2231 27.4039 27.2808 27.2586 27.3101C27.1133 27.3393 26.9636 27.3396 26.8182 27.3108C26.6728 27.2821 26.5345 27.2249 26.4113 27.1425L19.7738 22.6425V12.8437C19.7738 12.5454 19.8923 12.2592 20.1033 12.0483C20.3142 11.8373 20.6004 11.7187 20.8988 11.7187C21.1971 11.7187 21.4833 11.8373 21.6943 12.0483C21.9052 12.2592 22.0238 12.5454 22.0238 12.8437V21.45L27.6488 25.2637C27.7733 25.3446 27.8807 25.4493 27.9646 25.5718C28.0485 25.6944 28.1073 25.8323 28.1376 25.9777C28.1679 26.123 28.1692 26.273 28.1413 26.4188C28.1134 26.5647 28.0569 26.7036 27.975 26.8275V26.8275ZM27.5813 10.0087C25.9983 9.05465 24.2278 8.45428 22.391 8.24881C20.5542 8.04335 18.6947 8.23766 16.9401 8.81842C15.1855 9.39917 13.5773 10.3526 12.2258 11.6134C10.8744 12.8741 9.81161 14.4123 9.1105 16.1223C8.40939 17.8324 8.08651 19.6739 8.16403 21.5205C8.24154 23.3671 8.71761 25.1751 9.55956 26.8204C10.4015 28.4657 11.5894 29.9094 13.0418 31.0525C14.4942 32.1955 16.1766 33.0108 17.9738 33.4425L17.625 35.2087C15.5639 34.729 13.6315 33.8077 11.9612 32.5085C10.2908 31.2092 8.92234 29.563 7.95015 27.6834C6.97797 25.8038 6.42527 23.7355 6.3302 21.6215C6.23513 19.5075 6.59996 17.398 7.3995 15.4388C8.19905 13.4795 9.41426 11.717 10.9612 10.2731C12.5082 8.82915 14.3501 7.73813 16.3598 7.07534C18.3695 6.41256 20.4991 6.19379 22.6015 6.43414C24.704 6.6745 26.7293 7.36825 28.5375 8.4675L27.5813 10.0087Z" fill="white"/>
</svg>
