<svg width="42" height="42" viewBox="0 0 42 42" fill="none" xmlns="http://www.w3.org/2000/svg">
<path d="M17.45 3C16.7983 2.99963 16.1626 3.21584 15.6304 3.61881C15.0982 4.02179 14.6957 4.5917 14.4785 5.25H11.15C10.3146 5.25 9.51335 5.60558 8.92261 6.23852C8.33187 6.87145 8 7.72989 8 8.625V35.625C8 36.5201 8.33187 37.3785 8.92261 38.0115C9.51335 38.6444 10.3146 39 11.15 39H30.05C30.8854 39 31.6866 38.6444 32.2774 38.0115C32.8681 37.3785 33.2 36.5201 33.2 35.625V8.625C33.2 7.72989 32.8681 6.87145 32.2774 6.23852C31.6866 5.60558 30.8854 5.25 30.05 5.25H26.7215C26.5043 4.5917 26.1018 4.02179 25.5696 3.61881C25.0374 3.21584 24.4017 2.99963 23.75 3H17.45ZM16.4 6.375C16.4 6.07663 16.5106 5.79048 16.7075 5.57951C16.9045 5.36853 17.1715 5.25 17.45 5.25H23.75C24.0285 5.25 24.2956 5.36853 24.4925 5.57951C24.6894 5.79048 24.8 6.07663 24.8 6.375C24.8 6.67337 24.6894 6.95952 24.4925 7.1705C24.2956 7.38147 24.0285 7.5 23.75 7.5H17.45C17.1715 7.5 16.9045 7.38147 16.7075 7.1705C16.5106 6.95952 16.4 6.67337 16.4 6.375ZM26.5934 20.6715L19.2434 28.5465C19.1459 28.6513 19.03 28.7344 18.9024 28.7911C18.7749 28.8478 18.6381 28.877 18.5 28.877C18.3619 28.877 18.2251 28.8478 18.0976 28.7911C17.97 28.7344 17.8541 28.6513 17.7566 28.5465L14.6066 25.1715C14.509 25.0669 14.4315 24.9427 14.3787 24.8061C14.3259 24.6694 14.2987 24.5229 14.2987 24.375C14.2987 24.2271 14.3259 24.0806 14.3787 23.9439C14.4315 23.8073 14.509 23.6831 14.6066 23.5785C14.8038 23.3673 15.0712 23.2486 15.35 23.2486C15.4881 23.2486 15.6248 23.2777 15.7523 23.3343C15.8799 23.3909 15.9958 23.4739 16.0934 23.5785L18.5 26.1593L25.1066 19.0785C25.3038 18.8673 25.5712 18.7486 25.85 18.7486C26.1288 18.7486 26.3962 18.8673 26.5934 19.0785C26.7906 19.2897 26.9013 19.5763 26.9013 19.875C26.9013 20.1737 26.7906 20.4603 26.5934 20.6715V20.6715Z" fill="white"/>
</svg>
