<svg width="42" height="42" viewBox="0 0 42 42" fill="#fff" xmlns="http://www.w3.org/2000/svg">
<path d="M9.6 7C8.11479 7 6.69041 7.59 5.6402 8.6402C4.59 9.69041 4 11.1148 4 12.6V13.1628L20.8 22.2096L37.6 13.1656V12.6C37.6 11.1148 37.01 9.69041 35.9598 8.6402C34.9096 7.59 33.4852 7 32 7H9.6ZM37.6 16.3436L21.4636 25.032C21.2596 25.1418 21.0316 25.1993 20.8 25.1993C20.5684 25.1993 20.3404 25.1418 20.1364 25.032L4 16.3436V29.4C4 30.8852 4.59 32.3096 5.6402 33.3598C6.69041 34.41 8.11479 35 9.6 35H32C33.4852 35 34.9096 34.41 35.9598 33.3598C37.01 32.3096 37.6 30.8852 37.6 29.4V16.3436Z" fill="white"/>
</svg>
