<svg width="52" height="52" viewBox="0 0 52 52" fill="none" xmlns="http://www.w3.org/2000/svg">
<path d="M7.65217 28.7391L27.7391 28.741C28.6602 28.7411 29.5472 29.0893 30.2225 29.7158C30.8977 30.3423 31.3113 31.2007 31.3803 32.1192L31.3913 32.3931V36.9565C31.3895 44.6261 23.5629 47 17.6957 47C11.9453 47 4.31226 44.721 4.00913 37.4094L4 36.9565V32.3913C4.00017 31.4702 4.34837 30.5832 4.97483 29.908C5.6013 29.2328 6.45977 28.8192 7.37826 28.7501L7.65217 28.7391ZM31.793 28.741L44.1739 28.7391C45.095 28.7393 45.982 29.0875 46.6572 29.714C47.3325 30.3404 47.746 31.1989 47.8151 32.1174L47.8261 32.3913V36.0435C47.8243 42.9077 41.5626 45.1739 36.8696 45.1739C34.9376 45.1739 32.7444 44.7813 30.827 43.85C32.2003 42.2175 33.0914 40.1394 33.2046 37.5244L33.2174 36.9565V32.3931C33.2174 31.1112 32.7627 29.9462 32.0231 29.0149L31.793 28.7391H44.1739L31.793 28.741ZM17.6957 5C19.0147 5.00012 20.3208 5.26004 21.5394 5.76493C22.758 6.26982 23.8652 7.00979 24.7978 7.94258C25.7305 8.87537 26.4702 9.98273 26.9749 11.2014C27.4796 12.4201 27.7393 13.7263 27.7391 15.0453C27.739 16.3644 27.4791 17.6705 26.9742 18.8891C26.4693 20.1077 25.7293 21.2149 24.7966 22.1475C23.8638 23.0801 22.7564 23.8199 21.5377 24.3245C20.319 24.8292 19.0129 25.0889 17.6938 25.0888C15.0299 25.0885 12.4752 24.0301 10.5916 22.1462C8.70812 20.2623 7.65011 17.7074 7.65035 15.0435C7.65059 12.3795 8.70907 9.82481 10.5929 7.94129C12.4768 6.05777 15.0317 4.99976 17.6957 5V5ZM37.7826 8.65217C38.8617 8.65217 39.9303 8.86472 40.9273 9.27769C41.9243 9.69065 42.8301 10.2959 43.5932 11.059C44.3562 11.822 44.9615 12.7279 45.3745 13.7249C45.7875 14.7219 46 15.7904 46 16.8696C46 17.9487 45.7875 19.0172 45.3745 20.0142C44.9615 21.0112 44.3562 21.9171 43.5932 22.6801C42.8301 23.4432 41.9243 24.0485 40.9273 24.4614C39.9303 24.8744 38.8617 25.087 37.7826 25.087C35.6032 25.087 33.5131 24.2212 31.972 22.6801C30.431 21.1391 29.5652 19.049 29.5652 16.8696C29.5652 14.6902 30.431 12.6001 31.972 11.059C33.5131 9.51793 35.6032 8.65217 37.7826 8.65217V8.65217Z" fill="black"/>
</svg>
