<svg width="39" height="52" viewBox="0 0 39 52" fill="none" xmlns="http://www.w3.org/2000/svg">
<path d="M31.9727 10.25H30.25C29.7031 9.10156 28.5273 8.52734 26.7227 8.52734H21.4727V6.72266C21.4727 5.57422 20.8984 5 19.75 5C18.6016 5 18.0273 5.57422 18.0273 6.72266V8.52734H12.7773C10.9727 8.52734 9.79687 9.10156 9.25 10.25H7.52734C6.54297 10.25 5.70898 10.6055 5.02539 11.3164C4.3418 12.0273 4 12.9023 4 13.9414V43.4727C4 44.457 4.3418 45.291 5.02539 45.9746C5.70898 46.6582 6.54297 47 7.52734 47H31.9727C32.957 47 33.791 46.6445 34.4746 45.9336C35.1582 45.2227 35.5 44.3477 35.5 43.3086V13.9414C35.5 12.9023 35.1582 12.0273 34.4746 11.3164C33.791 10.6055 32.957 10.25 31.9727 10.25ZM13.5977 11.9727H25.9023C26.4492 11.9727 26.7227 12.2734 26.7227 12.875C26.7227 13.4766 26.4492 13.7773 25.9023 13.7773H13.5977C13.0508 13.7773 12.7773 13.4766 12.7773 12.875C12.7773 12.2734 13.0508 11.9727 13.5977 11.9727ZM31.9727 43.4727H7.52734V13.7773H9.25C9.30469 14.0508 9.41406 14.3789 9.57812 14.7617C9.74219 15.1445 10.1387 15.6504 10.7676 16.2793C11.3965 16.9082 12.0664 17.2227 12.7773 17.2227H26.7227C28.6914 17.2227 29.8672 16.0742 30.25 13.7773H31.9727V43.4727Z" fill="black"/>
<path d="M20.1538 38.1153C15.6929 38.1153 12.0769 34.4993 12.0769 30.0384C12.0769 25.5775 15.6929 21.9615 20.1538 21.9615C24.6147 21.9615 28.2307 25.5775 28.2307 30.0384C28.2307 34.4993 24.6147 38.1153 20.1538 38.1153ZM20.1538 27.6153H16.9231V29.2307H24.1923L20.1538 25.1923V27.6153ZM16.1154 30.8461L20.1538 34.8846V32.4615H23.3846V30.8461H16.1154Z" fill="black"/>
</svg>
