<svg width="42" height="42" viewBox="0 0 42 42" fill="none" xmlns="http://www.w3.org/2000/svg">
<path d="M37.2163 16.429H34.9992V10.7149C34.9992 10.4118 34.8788 10.1211 34.6645 9.90676C34.4502 9.69244 34.1595 9.57203 33.8564 9.57203H6.42849C6.12539 9.57203 5.83471 9.45163 5.62039 9.23731C5.40606 9.02298 5.28566 8.7323 5.28566 8.4292C5.28566 8.12611 5.40606 7.83542 5.62039 7.6211C5.83471 7.40678 6.12539 7.28637 6.42849 7.28637H33.3993C33.7024 7.28637 33.993 7.16597 34.2074 6.95165C34.4217 6.73732 34.5421 6.44664 34.5421 6.14354C34.5421 5.84045 34.4217 5.54976 34.2074 5.33544C33.993 5.12112 33.7024 5.00071 33.3993 5.00071H6.42849C5.98723 4.99162 5.54851 5.06954 5.13738 5.23004C4.72625 5.39054 4.35077 5.63047 4.03238 5.93612C3.714 6.24176 3.45895 6.60714 3.28181 7.01138C3.10468 7.41563 3.00891 7.8508 3 8.29206V32.2915C3.0015 32.9123 3.12544 33.5267 3.36474 34.0995C3.60404 34.6723 3.95398 35.1923 4.39454 35.6297C4.83509 36.067 5.3576 36.4132 5.93214 36.6483C6.50668 36.8835 7.12196 37.003 7.74274 36.9999H33.8564C34.1595 36.9999 34.4502 36.8795 34.6645 36.6652C34.8788 36.4509 34.9992 36.1602 34.9992 35.8571V30.143H37.2163C37.3606 30.1539 37.5055 30.1352 37.6423 30.0882C37.7791 30.0411 37.9048 29.9666 38.0118 29.8692C38.1188 29.7719 38.2048 29.6537 38.2645 29.5219C38.3243 29.3902 38.3564 29.2476 38.3591 29.103V17.6747C38.3629 17.3606 38.2468 17.0569 38.0345 16.8255C37.8221 16.594 37.5295 16.4523 37.2163 16.429ZM36.1421 27.8573H26.3366C25.1654 27.8156 24.0586 27.3107 23.2594 26.4536C22.4601 25.5965 22.0337 24.4572 22.0738 23.286C22.0337 22.1147 22.4601 20.9754 23.2594 20.1183C24.0586 19.2612 25.1654 18.7564 26.3366 18.7147H36.1421V27.8573Z" fill="white"/>
<path d="M28.0469 24.99C29.0134 24.99 29.7969 24.2065 29.7969 23.24C29.7969 22.2735 29.0134 21.49 28.0469 21.49C27.0804 21.49 26.2969 22.2735 26.2969 23.24C26.2969 24.2065 27.0804 24.99 28.0469 24.99Z" fill="white"/>
</svg>
