<svg width="42" height="42" viewBox="0 0 42 42" fill="none" xmlns="http://www.w3.org/2000/svg">
<path d="M22.1399 14.8057C21.8081 14.5279 21.4283 14.3887 20.9999 14.3887C20.5715 14.3887 20.1887 14.5279 19.8527 14.8057C19.5167 15.0835 19.2563 15.5815 19.0709 16.2997C18.8279 17.2315 18.7061 18.8005 18.7061 21.0073C18.7061 23.2123 18.8153 24.7291 19.0337 25.5541C19.2515 26.3791 19.5269 26.9287 19.8599 27.2017C20.1917 27.4759 20.5715 27.6121 20.9999 27.6121C21.4283 27.6121 21.8111 27.4741 22.1471 27.1963C22.4837 26.9173 22.7435 26.4193 22.9289 25.7011C23.1719 24.7777 23.2937 23.2135 23.2937 21.0079C23.2937 18.8011 23.1845 17.2861 22.9661 16.4599C22.7483 15.6355 22.4729 15.0835 22.1399 14.8057" fill="white"/>
<path d="M21 3C11.0592 3 3 11.0592 3 21C3 30.9408 11.0592 39 21 39C30.9408 39 39 30.9408 39 21C39 11.0592 30.9408 3 21 3ZM25.185 28.677C24.1848 29.9592 22.7898 30.6 21 30.6C19.2018 30.6 17.7516 29.8968 16.6512 28.4904C15.5508 27.0834 15 24.5766 15 20.9688C15 17.4288 15.6054 14.8812 16.815 13.3248C17.8152 12.0426 19.2102 11.4 21 11.4C22.7898 11.4 24.189 12.0492 25.1976 13.35C26.3994 14.889 27 17.4414 27 21.0072C27 24.5634 26.3946 27.1206 25.185 28.677Z" fill="white"/>
</svg>
