<svg width="42" height="42" viewBox="0 0 42 42" fill="none" xmlns="http://www.w3.org/2000/svg">
<path d="M20.997 16.9983C18.7935 16.9983 16.9953 18.7965 16.9953 21C16.9953 23.2035 18.7935 25.0017 20.997 25.0017C23.2005 25.0017 24.9987 23.2035 24.9987 21C24.9987 18.7965 23.2005 16.9983 20.997 16.9983ZM32.9991 21C32.9991 19.3429 33.0141 17.7008 32.9211 16.0467C32.828 14.1254 32.3897 12.4202 30.9848 11.0153C29.5768 9.6073 27.8747 9.17201 25.9534 9.07895C24.2962 8.98588 22.6541 9.00089 21 9.00089C19.3429 9.00089 17.7008 8.98588 16.0467 9.07895C14.1254 9.17201 12.4202 9.6103 11.0153 11.0153C9.6073 12.4232 9.17201 14.1254 9.07895 16.0467C8.98588 17.7038 9.00089 19.3459 9.00089 21C9.00089 22.6541 8.98588 24.2992 9.07895 25.9533C9.17201 27.8746 9.61031 29.5798 11.0153 30.9847C12.4232 32.3927 14.1254 32.828 16.0467 32.9211C17.7038 33.0141 19.3459 32.9991 21 32.9991C22.6571 32.9991 24.2992 33.0141 25.9534 32.9211C27.8747 32.828 29.5798 32.3897 30.9848 30.9847C32.3927 29.5768 32.828 27.8746 32.9211 25.9533C33.0171 24.2992 32.9991 22.6571 32.9991 21V21ZM20.997 27.1572C17.5897 27.1572 14.8398 24.4073 14.8398 21C14.8398 17.5927 17.5897 14.8428 20.997 14.8428C24.4043 14.8428 27.1542 17.5927 27.1542 21C27.1542 24.4073 24.4043 27.1572 20.997 27.1572ZM27.4063 16.0286C26.6108 16.0286 25.9684 15.3862 25.9684 14.5907C25.9684 13.7951 26.6108 13.1527 27.4063 13.1527C28.2019 13.1527 28.8443 13.7951 28.8443 14.5907C28.8446 14.7796 28.8075 14.9667 28.7353 15.1412C28.6632 15.3158 28.5572 15.4744 28.4237 15.608C28.2901 15.7416 28.1315 15.8475 27.9569 15.9197C27.7823 15.9918 27.5952 16.0289 27.4063 16.0286V16.0286Z" fill="white"/>
</svg>
