<svg width="191" height="83" viewBox="0 0 191 83" fill="none" xmlns="http://www.w3.org/2000/svg">
<path d="M94.088 17.6C101.336 17.6 106.88 18.92 110.72 21.56C114.608 24.2 116.552 28.328 116.552 33.944C116.552 36.872 116.024 39.392 114.968 41.504C113.96 43.568 112.472 45.272 110.504 46.616C108.536 47.912 106.136 48.872 103.304 49.496C100.472 50.12 97.232 50.432 93.584 50.432H89.048V68H79.976V18.824C82.088 18.344 84.416 18.032 86.96 17.888C89.552 17.696 91.928 17.6 94.088 17.6ZM94.736 25.448C92.432 25.448 90.536 25.52 89.048 25.664V42.656H93.44C97.808 42.656 101.168 42.056 103.52 40.856C105.872 39.608 107.048 37.28 107.048 33.872C107.048 32.24 106.736 30.872 106.112 29.768C105.488 28.664 104.624 27.8 103.52 27.176C102.416 26.552 101.096 26.12 99.56 25.88C98.072 25.592 96.464 25.448 94.736 25.448ZM145.859 38.192C145.139 37.952 144.131 37.712 142.835 37.472C141.587 37.184 140.123 37.04 138.443 37.04C137.483 37.04 136.451 37.136 135.347 37.328C134.291 37.52 133.547 37.688 133.115 37.832V68H124.403V32.144C126.083 31.52 128.171 30.944 130.667 30.416C133.211 29.84 136.019 29.552 139.091 29.552C139.667 29.552 140.339 29.6 141.107 29.696C141.875 29.744 142.643 29.84 143.411 29.984C144.179 30.08 144.923 30.224 145.643 30.416C146.363 30.56 146.939 30.704 147.371 30.848L145.859 38.192ZM187.498 49.136C187.498 52.112 187.066 54.824 186.202 57.272C185.338 59.72 184.114 61.808 182.53 63.536C180.946 65.264 179.026 66.608 176.77 67.568C174.562 68.528 172.114 69.008 169.426 69.008C166.738 69.008 164.29 68.528 162.082 67.568C159.874 66.608 157.978 65.264 156.394 63.536C154.81 61.808 153.562 59.72 152.65 57.272C151.786 54.824 151.354 52.112 151.354 49.136C151.354 46.16 151.786 43.472 152.65 41.072C153.562 38.624 154.81 36.536 156.394 34.808C158.026 33.08 159.946 31.76 162.154 30.848C164.362 29.888 166.786 29.408 169.426 29.408C172.066 29.408 174.49 29.888 176.698 30.848C178.954 31.76 180.874 33.08 182.458 34.808C184.042 36.536 185.266 38.624 186.13 41.072C187.042 43.472 187.498 46.16 187.498 49.136ZM178.57 49.136C178.57 45.392 177.754 42.44 176.122 40.28C174.538 38.072 172.306 36.968 169.426 36.968C166.546 36.968 164.29 38.072 162.658 40.28C161.074 42.44 160.282 45.392 160.282 49.136C160.282 52.928 161.074 55.928 162.658 58.136C164.29 60.344 166.546 61.448 169.426 61.448C172.306 61.448 174.538 60.344 176.122 58.136C177.754 55.928 178.57 52.928 178.57 49.136Z" fill="black"/>
<path d="M33.088 17.6C40.336 17.6 45.88 18.92 49.72 21.56C53.608 24.2 55.552 28.328 55.552 33.944C55.552 36.872 55.024 39.392 53.968 41.504C52.96 43.568 51.472 45.272 49.504 46.616C47.536 47.912 45.136 48.872 42.304 49.496C39.472 50.12 36.232 50.432 32.584 50.432H28.048V68H18.976V18.824C21.088 18.344 23.416 18.032 25.96 17.888C28.552 17.696 30.928 17.6 33.088 17.6ZM33.736 25.448C31.432 25.448 29.536 25.52 28.048 25.664V42.656H32.44C36.808 42.656 40.168 42.056 42.52 40.856C44.872 39.608 46.048 37.28 46.048 33.872C46.048 32.24 45.736 30.872 45.112 29.768C44.488 28.664 43.624 27.8 42.52 27.176C41.416 26.552 40.096 26.12 38.56 25.88C37.072 25.592 35.464 25.448 33.736 25.448Z" fill="#FDAF27"/>
<circle cx="23.5" cy="53.5" r="22.5" stroke="#FDAF27" stroke-width="2"/>
<circle cx="30.5" cy="26.5" r="22.5" stroke="#FDAF27" stroke-width="2"/>
</svg>
