<svg width="1440" height="538" viewBox="0 0 1440 538" fill="none" xmlns="http://www.w3.org/2000/svg">
<g clip-path="url(#clip0_1002_2)">
<path d="M1303.43 4.97282C1193.37 -16.729 1078.83 34.0826 1020.89 130.176C1007.13 152.921 997.333 177.44 991.08 202.585C965.442 104.614 885.192 25.0053 783.056 4.97282C672.999 -16.729 558.356 33.9782 500.41 130.176C486.653 152.921 476.856 177.44 470.603 202.585C445.069 104.614 364.715 25.0053 262.578 4.97282C152.521 -16.729 37.983 33.9782 -19.9636 130.176C-78.1187 226.687 -68.843 353.142 2.75649 440.054C74.2518 526.861 195.565 560.562 301.453 522.479C385.871 492.117 448.821 420.126 470.707 335.092C480.191 372.966 497.596 409.066 523.13 440.054C594.625 526.861 715.938 560.562 821.826 522.479C906.245 492.117 969.194 420.126 991.08 335.092C1000.56 372.966 1017.97 409.066 1043.5 440.054C1115 526.861 1236.31 560.562 1342.2 522.479C1447.77 484.501 1520 381.417 1520 269.152C1520.21 142.175 1427.97 29.3874 1303.43 4.97282Z" fill="#E4FAFF"/>
</g>
<defs>
<clipPath id="clip0_1002_2">
<rect width="1440" height="538" fill="white"/>
</clipPath>
</defs>
</svg>
