<svg width="42" height="42" viewBox="0 0 42 42" fill="none" xmlns="http://www.w3.org/2000/svg">
<path d="M35.5226 11.8468C34.4369 12.3279 33.2706 12.653 32.0445 12.7999C33.3097 12.0429 34.2561 10.8515 34.7074 9.44795C33.5188 10.1539 32.2179 10.6509 30.8614 10.9172C29.9491 9.94315 28.7408 9.29755 27.424 9.0806C26.1072 8.86366 24.7557 9.08752 23.5792 9.71742C22.4027 10.3473 21.467 11.348 20.9175 12.5642C20.368 13.7803 20.2354 15.1439 20.5403 16.4431C18.1319 16.3222 15.7758 15.6962 13.625 14.6058C11.4742 13.5153 9.57668 11.9849 8.05564 10.1137C7.53555 11.0108 7.2365 12.051 7.2365 13.1588C7.23592 14.156 7.4815 15.138 7.95146 16.0176C8.42142 16.8972 9.10122 17.6471 9.93054 18.201C8.96874 18.1704 8.02817 17.9105 7.18709 17.443V17.521C7.187 18.9197 7.67081 20.2753 8.55645 21.3579C9.44209 22.4405 10.675 23.1833 12.046 23.4603C11.1538 23.7018 10.2183 23.7374 9.31034 23.5644C9.69715 24.7678 10.4506 25.8203 11.4653 26.5742C12.4799 27.3282 13.7049 27.7461 14.9689 27.7692C12.8233 29.4535 10.1735 30.3672 7.44584 30.3632C6.96265 30.3633 6.47988 30.3351 6 30.2786C8.76877 32.0589 11.9918 33.0037 15.2835 33C26.4263 33 32.5178 23.7711 32.5178 15.767C32.5178 15.5069 32.5113 15.2443 32.4996 14.9842C33.6845 14.1274 34.7073 13.0663 35.52 11.8507L35.5226 11.8468V11.8468Z" fill="white"/>
</svg>
