<svg width="42" height="42" viewBox="0 0 42 42" fill="none" xmlns="http://www.w3.org/2000/svg">
<path d="M37.5274 12.749C37.3325 12.0231 36.9503 11.361 36.4191 10.8292C35.8879 10.2973 35.2264 9.91431 34.5006 9.71847C31.8293 9 21.121 9 21.121 9C21.121 9 10.4127 9 7.7414 9.71465C7.01536 9.90986 6.35347 10.2927 5.82219 10.8246C5.29091 11.3566 4.90894 12.0189 4.71465 12.7452C4 15.4204 4 21 4 21C4 21 4 26.5796 4.71465 29.251C5.10828 30.7261 6.27006 31.8879 7.7414 32.2815C10.4127 33 21.121 33 21.121 33C21.121 33 31.8293 33 34.5006 32.2815C35.9758 31.8879 37.1338 30.7261 37.5274 29.251C38.242 26.5796 38.242 21 38.242 21C38.242 21 38.242 15.4204 37.5274 12.749ZM17.7197 26.121V15.879L26.586 20.9618L17.7197 26.121Z" fill="white"/>
</svg>
